<?xml version="1.0" encoding="UTF-8"?>
<svg version="1.1" xmlns="http://www.w3.org/2000/svg" width="744" height="744">
<path d="M0 0 C1.18587708 0.00021149 2.37175415 0.00042297 3.59356689 0.00064087 C22.98702821 0.0350652 41.76034148 1.00505876 60.875 4.375 C61.9568457 4.56223633 63.03869141 4.74947266 64.15332031 4.94238281 C145.65722687 19.4939591 227.90803805 63.91330201 278.875 130.375 C279.77116959 131.47427424 280.67119205 132.57041422 281.57421875 133.6640625 C323.85032687 185.06102504 350.18714158 248.53066576 358.875 314.375 C358.96293823 315.02656067 359.05087646 315.67812134 359.14147949 316.34942627 C361.03116681 330.71994545 361.27387969 345.02031624 361.25 359.5 C361.24978851 360.68587708 361.24957703 361.87175415 361.24935913 363.09356689 C361.2149348 382.48702821 360.24494124 401.26034148 356.875 420.375 C356.68776367 421.4568457 356.50052734 422.53869141 356.30761719 423.65332031 C341.7560409 505.15722687 297.33669799 587.40803805 230.875 638.375 C229.77572576 639.27116959 228.67958578 640.17119205 227.5859375 641.07421875 C176.18897496 683.35032687 112.71933424 709.68714158 46.875 718.375 C46.22343933 718.46293823 45.57187866 718.55087646 44.90057373 718.64147949 C30.53005455 720.53116681 16.22968376 720.77387969 1.75 720.75 C0.56412292 720.74978851 -0.62175415 720.74957703 -1.84356689 720.74935913 C-21.23702821 720.7149348 -40.01034148 719.74494124 -59.125 716.375 C-60.2068457 716.18776367 -61.28869141 716.00052734 -62.40332031 715.80761719 C-124.48383001 704.72386291 -191.89108219 676.60891781 -237.125 631.375 C-237.32978498 628.44914468 -237.40716751 625.61709397 -237.39902878 622.68942928 C-237.40433243 621.77471943 -237.40963609 620.86000957 -237.41510046 619.91758123 C-237.43055686 616.81789269 -237.43160745 613.71836168 -237.43280029 610.61863708 C-237.44082494 608.38768028 -237.44970061 606.15672639 -237.45935941 603.92577606 C-237.48335383 597.76801938 -237.49460183 591.61029407 -237.50372171 585.45249975 C-237.51439077 579.50188513 -237.53434725 573.55130326 -237.55374063 567.60071226 C-237.60503595 551.650911 -237.63507925 535.70109042 -237.66076157 519.75123034 C-237.66926829 514.46885622 -237.67839968 509.18648351 -237.6879282 503.90411115 C-237.73844854 475.82707758 -237.78255188 447.75004172 -237.80738449 419.67297268 C-237.81322732 413.16568938 -237.81916231 406.65840617 -237.82519531 400.15112305 C-237.82593713 399.34266091 -237.82667895 398.53419878 -237.82744325 397.70123779 C-237.85175387 371.4893996 -237.91363887 345.27783002 -237.99703836 319.066118 C-238.08259789 292.12643939 -238.13586458 265.18690265 -238.14633392 238.24708448 C-238.14781484 234.44261144 -238.14963621 230.63813864 -238.15164948 226.83366585 C-238.1520307 226.0848981 -238.15241193 225.33613034 -238.15280472 224.56467266 C-238.15983426 212.51019045 -238.20044088 200.45604435 -238.25324275 188.40168561 C-238.30551518 176.2855128 -238.32099445 164.16972862 -238.29904017 152.05345916 C-238.28813363 145.48811062 -238.29457766 138.92362069 -238.34397125 132.35840607 C-238.38880588 126.34908788 -238.3875983 120.34161194 -238.34956351 114.33226312 C-238.3439419 112.15718566 -238.35528124 109.98198528 -238.38518938 107.80710619 C-238.59483275 91.57072173 -238.59483275 91.57072173 -234.98709726 86.18127644 C-232.47415772 83.87374657 -230.03854438 82.13448539 -227.125 80.375 C-225.5046184 79.1212171 -223.89464988 77.85372551 -222.30078125 76.56640625 C-220.68444637 75.35041927 -219.06324486 74.14087709 -217.4375 72.9375 C-216.56955811 72.29208252 -215.70161621 71.64666504 -214.80737305 70.98168945 C-164.91246003 34.12681356 -106.66328777 10.35724888 -45.125 2.375 C-44.47770935 2.28812927 -43.8304187 2.20125854 -43.16351318 2.11175537 C-28.78727838 0.22506991 -14.4852844 -0.02388893 0 0 Z M51.875 76.375 C50.48138457 77.131897 49.08685034 77.88710471 47.69140625 78.640625 C38.04596796 83.88904037 28.57641695 89.44127833 19.10473633 94.99511719 C12.29497922 98.98273057 5.44458115 102.88882367 -1.4375 106.75 C-9.59759015 111.34989362 -17.73968826 115.98094642 -25.82894897 120.70440674 C-27.57488494 121.7208249 -29.32703562 122.72654429 -31.0793457 123.73193359 C-39.97908946 128.95689721 -48.55651091 134.87009193 -51.69184971 145.25198078 C-54.24269189 157.75453956 -53.25979094 171.20039763 -53.23852539 183.88208008 C-53.23824294 186.24849954 -53.23840238 188.61491909 -53.2389679 190.9813385 C-53.23925362 197.37293457 -53.23339332 203.76451169 -53.22639394 210.15610337 C-53.22075917 216.16887278 -53.21976901 222.18164153 -53.21874207 228.19441303 C-53.21655983 240.09453736 -53.20992232 251.9946548 -53.20043945 263.89477539 C-53.19124383 275.44653285 -53.18417354 286.99828844 -53.17993164 298.55004883 C-53.17966892 299.26351236 -53.17940619 299.97697589 -53.17913551 300.71205954 C-53.17783036 304.29171838 -53.17656668 307.87137723 -53.17532361 311.4510361 C-53.16497682 341.09236197 -53.14730621 370.73368065 -53.125 400.375 C-53.6665271 400.23008118 -54.2080542 400.08516235 -54.76599121 399.93585205 C-57.24962938 399.27261605 -59.7341763 398.61284734 -62.21875 397.953125 C-63.07049805 397.72512207 -63.92224609 397.49711914 -64.79980469 397.26220703 C-100.92770668 387.69074937 -141.56952008 391.69098543 -174.125 410.375 C-188.32133573 418.95462298 -200.11551835 430.01955104 -205.46484375 446.16015625 C-208.29928437 459.96337893 -206.08063392 471.95634397 -198.9375 484 C-183.51571597 506.8891742 -156.62589831 516.69481315 -130.70703125 522.0859375 C-94.76058151 528.37314924 -55.54284109 522.65665479 -25.125 501.875 C-13.36711938 493.36868143 -3.13188075 482.01797549 -0.125 467.375 C1.13198949 455.75953692 0.31074271 445.22137159 -6.17193508 435.21564674 C-8.3662696 431.36566153 -8.69087182 427.84107659 -8.6396637 423.46762085 C-8.64660922 422.70154341 -8.65355475 421.93546598 -8.66071075 421.14617407 C-8.67891708 418.59503197 -8.66873481 416.0448265 -8.65844727 413.49365234 C-8.66550881 411.65838427 -8.67425482 409.82312202 -8.68455505 407.98786926 C-8.70702772 403.01487045 -8.70411496 398.0421902 -8.69523358 393.06915998 C-8.6901199 388.91627459 -8.69741903 384.76344885 -8.70470566 380.6105696 C-8.72169659 370.81584738 -8.71814533 361.02128101 -8.70141602 351.2265625 C-8.68447816 341.12040604 -8.70035397 331.01468099 -8.7326389 320.9085716 C-8.75931654 312.22898613 -8.76661624 303.5495351 -8.75812382 294.86991274 C-8.7531914 289.68695471 -8.7554279 284.50425652 -8.77591133 279.32133102 C-8.79424089 274.45052025 -8.78834319 269.58033182 -8.76371193 264.70955467 C-8.7586962 262.92171351 -8.76221353 261.13382512 -8.77486038 259.34602165 C-8.79075595 256.90609968 -8.77587588 254.46823615 -8.75318909 252.02841187 C-8.76502482 251.32014358 -8.77686054 250.61187529 -8.78905493 249.88214433 C-8.7172863 246.08611813 -8.22988216 244.50283265 -5.79154873 241.5309391 C-2.67540948 239.01150025 0.58285799 236.96296102 4.0625 235 C4.78373047 234.58427734 5.50496094 234.16855469 6.24804688 233.74023438 C7.87355608 232.80425351 9.50112781 231.87184862 11.13037109 230.94238281 C14.15055146 229.21764007 17.16363609 227.48092389 20.17578125 225.7421875 C21.27269287 225.10901611 22.36960449 224.47584473 23.49975586 223.82348633 C25.17050171 222.8589856 25.17050171 222.8589856 26.875 221.875 C29.11194893 220.584583 31.34892763 219.29421761 33.5859375 218.00390625 C34.65553711 217.38660645 35.72513672 216.76930664 36.82714844 216.13330078 C38.74125407 215.02905625 40.65588858 213.92572745 42.57128906 212.82373047 C56.93578842 205.83361826 56.93578842 205.83361826 66.875 194.375 C67.355151 190.05364101 67.16673086 187.9081633 65.0625 184.0625 C62.9085394 181.41620555 61.34221928 179.60826676 57.87255859 179.05664062 C52.32043889 178.99325748 48.32169659 180.06783522 43.5 182.875 C42.80156982 183.26155762 42.10313965 183.64811523 41.38354492 184.04638672 C33.10109234 188.6870905 24.96424924 193.60618433 16.84423828 198.52539062 C-4.50320389 211.375 -4.50320389 211.375 -8.125 211.375 C-8.25192283 203.93703458 -8.33940352 196.49934909 -8.3996582 189.06054688 C-8.42478044 186.53081831 -8.45888421 184.00116218 -8.50219727 181.47167969 C-8.56294555 177.83250037 -8.59123385 174.19428188 -8.61328125 170.5546875 C-8.63908768 169.42634491 -8.6648941 168.29800232 -8.69148254 167.13546753 C-8.69460771 158.35842726 -8.69460771 158.35842726 -5.92944336 154.81982422 C-3.27969383 152.50985714 -0.855265 150.74127396 2.234375 149.078125 C3.25845459 148.51746338 4.28253418 147.95680176 5.33764648 147.37915039 C6.42247314 146.80028076 7.5072998 146.22141113 8.625 145.625 C10.90310951 144.38030677 13.18045284 143.13421021 15.45703125 141.88671875 C16.56385254 141.2839209 17.67067383 140.68112305 18.81103516 140.06005859 C22.69056592 137.92647124 26.51026061 135.70519038 30.3125 133.4375 C36.31359176 129.87003071 42.34997741 126.36905054 48.40527344 122.89428711 C57.32108696 117.77389119 66.23656259 112.64920711 75.0625 107.375 C75.76173584 106.96709229 76.46097168 106.55918457 77.18139648 106.13891602 C82.8862007 102.68883102 88.19736218 98.52057092 91.375 92.5625 C92.31050174 86.59867642 91.91982845 81.3900263 89.125 76 C85.49399285 71.76382499 82.32762674 68.98725739 76.73828125 67.99609375 C67.13163332 67.30465048 59.95666448 71.85384068 51.875 76.375 Z " fill="#000000" transform="translate(321.125,11.625)"/>
</svg>
